<mxfile host="Electron" modified="2024-02-09T03:24:27.645Z" agent="Mozilla/5.0 (X11; Linux x86_64) AppleWebKit/537.36 (KHTML, like Gecko) draw.io/22.1.21 Chrome/120.0.6099.109 Electron/28.1.0 Safari/537.36" etag="rqSFFVKcFrvGhjbGX3Ap" version="22.1.21" type="device">
  <diagram name="Page-1" id="UgkzKDdlbD2YLOSZ790F">
    <mxGraphModel dx="579" dy="907" grid="0" gridSize="10" guides="1" tooltips="1" connect="1" arrows="1" fold="1" page="1" pageScale="1" pageWidth="850" pageHeight="1100" math="0" shadow="0">
      <root>
        <mxCell id="0" />
        <mxCell id="1" parent="0" />
        <mxCell id="WaaS-qGKVErQEOPKYESH-2" value="" style="group;fillColor=#232136;strokeColor=#232136;strokeWidth=25;container=0;movable=1;resizable=1;rotatable=1;deletable=1;editable=1;locked=0;connectable=1;fontSize=18;" parent="1" vertex="1" connectable="0">
          <mxGeometry x="950" y="440" width="1010" height="540" as="geometry" />
        </mxCell>
        <mxCell id="3aSCwRJMT3F2lno_R7aL-35" value="Looker" style="rounded=1;whiteSpace=wrap;html=1;dashed=1;labelBackgroundColor=none;strokeColor=#FFFFFF;strokeWidth=3;align=center;verticalAlign=bottom;fontFamily=Helvetica;fontSize=18;fontColor=#FFFFFF;fillColor=none;fontStyle=1" parent="1" vertex="1">
          <mxGeometry x="1400" y="470" width="110" height="220" as="geometry" />
        </mxCell>
        <mxCell id="9AoiroFoVsxQzHGqrJnJ-85" value="" style="sketch=0;outlineConnect=0;fontColor=#FFFFFF;gradientColor=none;fillColor=#DB918D;strokeColor=none;dashed=0;verticalLabelPosition=bottom;verticalAlign=top;align=center;html=1;fontSize=18;fontStyle=0;aspect=fixed;shape=mxgraph.aws4.application_discovery_service_aws_agentless_collector;rotation=0;container=0;flipV=0;" parent="1" vertex="1">
          <mxGeometry x="1419" y="490" width="72" height="72" as="geometry" />
        </mxCell>
        <mxCell id="3aSCwRJMT3F2lno_R7aL-10" value="" style="sketch=0;outlineConnect=0;fontColor=#232F3E;gradientColor=none;fillColor=#DB918D;strokeColor=none;dashed=0;verticalLabelPosition=bottom;verticalAlign=top;align=center;html=1;fontSize=18;fontStyle=0;aspect=fixed;shape=mxgraph.aws4.mainframe_modernization_analyzer;rotation=0;container=0;flipV=0;" parent="1" vertex="1">
          <mxGeometry x="1423.5" y="590" width="63" height="63" as="geometry" />
        </mxCell>
        <mxCell id="8PTqsjU23CyEYYIXnUMX-3" style="edgeStyle=orthogonalEdgeStyle;shape=connector;curved=0;rounded=1;orthogonalLoop=1;jettySize=auto;html=1;entryX=0;entryY=0.5;entryDx=0;entryDy=0;labelBackgroundColor=default;strokeColor=#DB918D;strokeWidth=4;align=center;verticalAlign=middle;fontFamily=Helvetica;fontSize=11;fontColor=default;endArrow=openThin;endFill=0;" parent="1" source="3aSCwRJMT3F2lno_R7aL-37" target="9AoiroFoVsxQzHGqrJnJ-2" edge="1">
          <mxGeometry relative="1" as="geometry" />
        </mxCell>
        <mxCell id="3aSCwRJMT3F2lno_R7aL-37" value="DoThing" style="rounded=1;whiteSpace=wrap;html=1;dashed=1;labelBackgroundColor=none;strokeColor=#FFFFFF;strokeWidth=3;align=center;verticalAlign=bottom;fontFamily=Helvetica;fontSize=18;fontColor=#FFFFFF;fillColor=none;fontStyle=1" parent="1" vertex="1">
          <mxGeometry x="1400" y="840" width="110" height="110" as="geometry" />
        </mxCell>
        <mxCell id="3aSCwRJMT3F2lno_R7aL-7" value="" style="sketch=0;outlineConnect=0;fontColor=#232F3E;gradientColor=none;fillColor=#FFD966;strokeColor=#DB918D;dashed=0;verticalLabelPosition=bottom;verticalAlign=top;align=center;html=1;fontSize=18;fontStyle=0;aspect=fixed;pointerEvents=1;shape=mxgraph.aws4.action;fontFamily=Helvetica;container=0;rotation=0;flipV=0;" parent="1" vertex="1">
          <mxGeometry x="1423.5" y="854" width="63" height="63" as="geometry" />
        </mxCell>
        <mxCell id="9AoiroFoVsxQzHGqrJnJ-2" value="" style="rounded=1;whiteSpace=wrap;html=1;labelBackgroundColor=none;strokeColor=#FFFFFF;strokeWidth=3;align=left;verticalAlign=top;fontFamily=Helvetica;fontSize=18;fontColor=#FFFFFF;fillColor=none;arcSize=4;dashed=1;container=0;" parent="1" vertex="1">
          <mxGeometry x="1551" y="468.5" width="402" height="482" as="geometry" />
        </mxCell>
        <mxCell id="9AoiroFoVsxQzHGqrJnJ-78" value="&lt;div style=&quot;text-align: center; font-size: 18px;&quot;&gt;&lt;span style=&quot;background-color: initial; font-size: 18px;&quot;&gt;&lt;b style=&quot;font-size: 18px;&quot;&gt;Estado Observado&lt;/b&gt;&lt;/span&gt;&lt;/div&gt;&lt;div style=&quot;text-align: center; font-size: 18px;&quot;&gt;&lt;span style=&quot;background-color: initial; font-size: 18px;&quot;&gt;&lt;b style=&quot;font-size: 18px;&quot;&gt;&lt;br style=&quot;font-size: 18px;&quot;&gt;&lt;/b&gt;&lt;/span&gt;&lt;/div&gt;" style="text;whiteSpace=wrap;html=1;fontSize=18;fontFamily=Helvetica;fontColor=#FFFFFF;container=0;" parent="1" vertex="1">
          <mxGeometry x="1549" y="436.5" width="402" height="40" as="geometry" />
        </mxCell>
        <mxCell id="9AoiroFoVsxQzHGqrJnJ-125" value="Opcionales" style="text;html=1;strokeColor=none;fillColor=none;align=left;verticalAlign=middle;whiteSpace=wrap;rounded=0;fontSize=18;fontFamily=Helvetica;fontColor=#FFFFFF;container=0;" parent="1" vertex="1">
          <mxGeometry x="1583" y="819.5" width="75" height="30" as="geometry" />
        </mxCell>
        <mxCell id="9AoiroFoVsxQzHGqrJnJ-126" value="Requeridos" style="text;html=1;strokeColor=none;fillColor=none;align=left;verticalAlign=middle;whiteSpace=wrap;rounded=0;fontSize=18;fontFamily=Helvetica;fontColor=#FFFFFF;container=0;" parent="1" vertex="1">
          <mxGeometry x="1583" y="729.5" width="75" height="30" as="geometry" />
        </mxCell>
        <mxCell id="9AoiroFoVsxQzHGqrJnJ-127" value="" style="rounded=1;whiteSpace=wrap;html=1;labelBackgroundColor=none;strokeColor=#DB918D;strokeWidth=3;align=left;verticalAlign=top;fontFamily=Helvetica;fontSize=18;fontColor=#FFFFFF;fillColor=none;arcSize=7;container=0;" parent="1" vertex="1">
          <mxGeometry x="1568" y="721.5" width="370" height="200" as="geometry" />
        </mxCell>
        <mxCell id="9AoiroFoVsxQzHGqrJnJ-128" value="&lt;b style=&quot;border-color: var(--border-color); color: rgb(255, 255, 255); font-family: Helvetica; font-size: 18px; font-style: normal; font-variant-ligatures: normal; font-variant-caps: normal; letter-spacing: normal; orphans: 2; text-align: center; text-indent: 0px; text-transform: none; widows: 2; word-spacing: 0px; -webkit-text-stroke-width: 0px; text-decoration-thickness: initial; text-decoration-style: initial; text-decoration-color: initial;&quot;&gt;South Sector&lt;/b&gt;" style="text;whiteSpace=wrap;html=1;fontSize=18;fontFamily=Helvetica;fontColor=#FFFFFF;container=0;" parent="1" vertex="1">
          <mxGeometry x="1566" y="693" width="211" height="40" as="geometry" />
        </mxCell>
        <mxCell id="9AoiroFoVsxQzHGqrJnJ-129" value="" style="rounded=1;whiteSpace=wrap;html=1;labelBackgroundColor=none;strokeColor=#DB918D;strokeWidth=3;align=left;verticalAlign=top;fontFamily=Helvetica;fontSize=18;fontColor=#FFFFFF;fillColor=none;arcSize=7;container=0;" parent="1" vertex="1">
          <mxGeometry x="1568" y="497.5" width="370" height="200" as="geometry" />
        </mxCell>
        <mxCell id="9AoiroFoVsxQzHGqrJnJ-130" value="Opcionales" style="text;html=1;strokeColor=none;fillColor=none;align=left;verticalAlign=middle;whiteSpace=wrap;rounded=0;fontSize=18;fontFamily=Helvetica;fontColor=#FFFFFF;container=0;" parent="1" vertex="1">
          <mxGeometry x="1583" y="587.5" width="75" height="30" as="geometry" />
        </mxCell>
        <mxCell id="9AoiroFoVsxQzHGqrJnJ-131" value="Requeridos" style="text;html=1;strokeColor=none;fillColor=none;align=left;verticalAlign=middle;whiteSpace=wrap;rounded=0;fontSize=18;fontFamily=Helvetica;fontColor=#FFFFFF;container=0;" parent="1" vertex="1">
          <mxGeometry x="1583" y="497.5" width="75" height="30" as="geometry" />
        </mxCell>
        <mxCell id="9AoiroFoVsxQzHGqrJnJ-132" value="&lt;b style=&quot;border-color: var(--border-color); color: rgb(255, 255, 255); font-family: Helvetica; font-size: 18px; font-style: normal; font-variant-ligatures: normal; font-variant-caps: normal; letter-spacing: normal; orphans: 2; text-align: center; text-indent: 0px; text-transform: none; widows: 2; word-spacing: 0px; -webkit-text-stroke-width: 0px; text-decoration-thickness: initial; text-decoration-style: initial; text-decoration-color: initial;&quot;&gt;North Sector&lt;/b&gt;" style="text;whiteSpace=wrap;html=1;fontSize=18;fontFamily=Helvetica;fontColor=#FFFFFF;container=0;" parent="1" vertex="1">
          <mxGeometry x="1566" y="468" width="208" height="40" as="geometry" />
        </mxCell>
        <mxCell id="ZdKja-d9RXKtlkr0xZca-1" value="" style="rounded=1;whiteSpace=wrap;html=1;labelBackgroundColor=none;strokeColor=#DB918D;strokeWidth=3;align=left;verticalAlign=top;fontFamily=Helvetica;fontSize=18;fontColor=#FFFFFF;fillColor=none;container=0;" parent="1" vertex="1">
          <mxGeometry x="1583" y="529.5" width="75" height="60" as="geometry" />
        </mxCell>
        <mxCell id="ZdKja-d9RXKtlkr0xZca-2" value="" style="rounded=1;whiteSpace=wrap;html=1;labelBackgroundColor=none;strokeColor=#DB918D;strokeWidth=3;align=left;verticalAlign=top;fontFamily=Helvetica;fontSize=18;fontColor=#FFFFFF;fillColor=none;container=0;" parent="1" vertex="1">
          <mxGeometry x="1671" y="529.5" width="75" height="60" as="geometry" />
        </mxCell>
        <mxCell id="ZdKja-d9RXKtlkr0xZca-3" value="" style="rounded=1;whiteSpace=wrap;html=1;labelBackgroundColor=none;strokeColor=#DB918D;strokeWidth=3;align=left;verticalAlign=top;fontFamily=Helvetica;fontSize=18;fontColor=#FFFFFF;fillColor=none;container=0;" parent="1" vertex="1">
          <mxGeometry x="1760" y="527.5" width="75" height="60" as="geometry" />
        </mxCell>
        <mxCell id="ZdKja-d9RXKtlkr0xZca-4" value="" style="rounded=1;whiteSpace=wrap;html=1;labelBackgroundColor=none;strokeColor=#DB918D;strokeWidth=3;align=left;verticalAlign=top;fontFamily=Helvetica;fontSize=18;fontColor=#FFFFFF;fillColor=none;container=0;" parent="1" vertex="1">
          <mxGeometry x="1848" y="527.5" width="75" height="60" as="geometry" />
        </mxCell>
        <mxCell id="ZdKja-d9RXKtlkr0xZca-5" value="" style="rounded=1;whiteSpace=wrap;html=1;labelBackgroundColor=none;strokeColor=#DB918D;strokeWidth=3;align=left;verticalAlign=top;fontFamily=Helvetica;fontSize=18;fontColor=#FFFFFF;fillColor=none;container=0;" parent="1" vertex="1">
          <mxGeometry x="1760" y="617.5" width="75" height="60" as="geometry" />
        </mxCell>
        <mxCell id="ZdKja-d9RXKtlkr0xZca-6" value="" style="rounded=1;whiteSpace=wrap;html=1;labelBackgroundColor=none;strokeColor=#DB918D;strokeWidth=3;align=left;verticalAlign=top;fontFamily=Helvetica;fontSize=18;fontColor=#FFFFFF;fillColor=none;container=0;" parent="1" vertex="1">
          <mxGeometry x="1670" y="617.5" width="75" height="60" as="geometry" />
        </mxCell>
        <mxCell id="ZdKja-d9RXKtlkr0xZca-7" value="" style="rounded=1;whiteSpace=wrap;html=1;labelBackgroundColor=none;strokeColor=#DB918D;strokeWidth=3;align=left;verticalAlign=top;fontFamily=Helvetica;fontSize=18;fontColor=#FFFFFF;fillColor=none;container=0;" parent="1" vertex="1">
          <mxGeometry x="1583" y="759.5" width="75" height="60" as="geometry" />
        </mxCell>
        <mxCell id="ZdKja-d9RXKtlkr0xZca-8" value="" style="rounded=1;whiteSpace=wrap;html=1;labelBackgroundColor=none;strokeColor=#DB918D;strokeWidth=3;align=left;verticalAlign=top;fontFamily=Helvetica;fontSize=18;fontColor=#FFFFFF;fillColor=none;container=0;" parent="1" vertex="1">
          <mxGeometry x="1671" y="759.5" width="75" height="60" as="geometry" />
        </mxCell>
        <mxCell id="ZdKja-d9RXKtlkr0xZca-9" value="" style="rounded=1;whiteSpace=wrap;html=1;labelBackgroundColor=none;strokeColor=#DB918D;strokeWidth=3;align=left;verticalAlign=top;fontFamily=Helvetica;fontSize=18;fontColor=#FFFFFF;fillColor=none;container=0;" parent="1" vertex="1">
          <mxGeometry x="1760" y="759.5" width="75" height="60" as="geometry" />
        </mxCell>
        <mxCell id="ZdKja-d9RXKtlkr0xZca-10" value="" style="rounded=1;whiteSpace=wrap;html=1;labelBackgroundColor=none;strokeColor=#DB918D;strokeWidth=3;align=left;verticalAlign=top;fontFamily=Helvetica;fontSize=18;fontColor=#FFFFFF;fillColor=none;container=0;" parent="1" vertex="1">
          <mxGeometry x="1848" y="759.5" width="75" height="60" as="geometry" />
        </mxCell>
        <mxCell id="ZdKja-d9RXKtlkr0xZca-11" value="" style="rounded=1;whiteSpace=wrap;html=1;labelBackgroundColor=none;strokeColor=#DB918D;strokeWidth=3;align=left;verticalAlign=top;fontFamily=Helvetica;fontSize=18;fontColor=#FFFFFF;fillColor=none;container=0;" parent="1" vertex="1">
          <mxGeometry x="1760" y="849.5" width="75" height="60" as="geometry" />
        </mxCell>
        <mxCell id="ZdKja-d9RXKtlkr0xZca-12" value="" style="rounded=1;whiteSpace=wrap;html=1;labelBackgroundColor=none;strokeColor=#DB918D;strokeWidth=3;align=left;verticalAlign=top;fontFamily=Helvetica;fontSize=18;fontColor=#FFFFFF;fillColor=none;container=0;" parent="1" vertex="1">
          <mxGeometry x="1670" y="849.5" width="75" height="60" as="geometry" />
        </mxCell>
        <mxCell id="ZdKja-d9RXKtlkr0xZca-27" value="&lt;b style=&quot;border-color: var(--border-color); color: rgb(255, 255, 255); font-family: Helvetica; font-size: 18px; font-style: normal; font-variant-ligatures: normal; font-variant-caps: normal; letter-spacing: normal; orphans: 2; text-indent: 0px; text-transform: none; widows: 2; word-spacing: 0px; -webkit-text-stroke-width: 0px; text-decoration-thickness: initial; text-decoration-style: initial; text-decoration-color: initial;&quot;&gt;Fault&lt;/b&gt;" style="text;whiteSpace=wrap;html=1;fontSize=18;fontFamily=Helvetica;fontColor=#FFFFFF;container=0;align=right;" parent="1" vertex="1">
          <mxGeometry x="1828" y="468" width="110" height="40" as="geometry" />
        </mxCell>
        <mxCell id="ZdKja-d9RXKtlkr0xZca-28" value="&lt;b style=&quot;border-color: var(--border-color); color: rgb(255, 255, 255); font-family: Helvetica; font-size: 18px; font-style: normal; font-variant-ligatures: normal; font-variant-caps: normal; letter-spacing: normal; orphans: 2; text-indent: 0px; text-transform: none; widows: 2; word-spacing: 0px; -webkit-text-stroke-width: 0px; text-decoration-thickness: initial; text-decoration-style: initial; text-decoration-color: initial;&quot;&gt;Fault&lt;/b&gt;" style="text;whiteSpace=wrap;html=1;fontSize=18;fontFamily=Helvetica;fontColor=#FFFFFF;container=0;align=right;" parent="1" vertex="1">
          <mxGeometry x="1828" y="693" width="110" height="40" as="geometry" />
        </mxCell>
        <mxCell id="ZdKja-d9RXKtlkr0xZca-29" value="&lt;b style=&quot;border-color: var(--border-color); color: rgb(255, 255, 255); font-family: Helvetica; font-size: 18px; font-style: normal; font-variant-ligatures: normal; font-variant-caps: normal; letter-spacing: normal; orphans: 2; text-indent: 0px; text-transform: none; widows: 2; word-spacing: 0px; -webkit-text-stroke-width: 0px; text-decoration-thickness: initial; text-decoration-style: initial; text-decoration-color: initial;&quot;&gt;Fault&lt;/b&gt;" style="text;whiteSpace=wrap;html=1;fontSize=18;fontFamily=Helvetica;fontColor=#FFFFFF;container=0;align=right;" parent="1" vertex="1">
          <mxGeometry x="1828" y="437" width="110" height="40" as="geometry" />
        </mxCell>
        <mxCell id="vHqZfhKP10PH7yxNK9sM-32" style="edgeStyle=orthogonalEdgeStyle;shape=connector;curved=0;rounded=1;orthogonalLoop=1;jettySize=auto;html=1;entryX=1;entryY=0.5;entryDx=0;entryDy=0;labelBackgroundColor=default;strokeColor=#DB918D;strokeWidth=4;align=center;verticalAlign=middle;fontFamily=Helvetica;fontSize=11;fontColor=default;endArrow=openThin;endFill=0;" parent="1" source="3aSCwRJMT3F2lno_R7aL-36" target="WaaS-qGKVErQEOPKYESH-108" edge="1">
          <mxGeometry relative="1" as="geometry">
            <Array as="points">
              <mxPoint x="1382" y="765" />
              <mxPoint x="1382" y="709" />
            </Array>
          </mxGeometry>
        </mxCell>
        <mxCell id="3aSCwRJMT3F2lno_R7aL-36" value="Bran" style="rounded=1;whiteSpace=wrap;html=1;dashed=1;labelBackgroundColor=none;strokeColor=#FFFFFF;strokeWidth=3;align=center;verticalAlign=bottom;fontFamily=Helvetica;fontSize=18;fontColor=#FFFFFF;fillColor=none;fontStyle=1" parent="1" vertex="1">
          <mxGeometry x="1400" y="710" width="110" height="110" as="geometry" />
        </mxCell>
        <mxCell id="3aSCwRJMT3F2lno_R7aL-11" value="" style="sketch=0;outlineConnect=0;fontColor=#232F3E;gradientColor=none;fillColor=#FFD966;strokeColor=#DB918D;dashed=0;verticalLabelPosition=bottom;verticalAlign=top;align=center;html=1;fontSize=18;fontStyle=0;aspect=fixed;pointerEvents=1;shape=mxgraph.aws4.backup_plan;fontFamily=Helvetica;container=0;rotation=0;flipV=0;" parent="1" vertex="1">
          <mxGeometry x="1423.5" y="728" width="63" height="63" as="geometry" />
        </mxCell>
        <mxCell id="8PTqsjU23CyEYYIXnUMX-2" style="edgeStyle=orthogonalEdgeStyle;shape=connector;curved=0;rounded=1;orthogonalLoop=1;jettySize=auto;html=1;exitX=0.5;exitY=1;exitDx=0;exitDy=0;entryX=0.5;entryY=1;entryDx=0;entryDy=0;labelBackgroundColor=default;strokeColor=#DB918D;strokeWidth=4;align=center;verticalAlign=middle;fontFamily=Helvetica;fontSize=11;fontColor=default;endArrow=openThin;endFill=0;" parent="1" source="WaaS-qGKVErQEOPKYESH-108" target="3aSCwRJMT3F2lno_R7aL-37" edge="1">
          <mxGeometry relative="1" as="geometry" />
        </mxCell>
        <mxCell id="WaaS-qGKVErQEOPKYESH-108" value="" style="rounded=1;whiteSpace=wrap;html=1;labelBackgroundColor=none;strokeColor=#FFFFFF;strokeWidth=3;align=left;verticalAlign=top;fontFamily=Helvetica;fontSize=18;fontColor=#FFFFFF;fillColor=none;arcSize=4;dashed=1;container=0;" parent="1" vertex="1">
          <mxGeometry x="957" y="468" width="402" height="482" as="geometry" />
        </mxCell>
        <mxCell id="WaaS-qGKVErQEOPKYESH-149" value="&lt;div style=&quot;text-align: center; font-size: 18px;&quot;&gt;&lt;b&gt;Directivas Planeadas&lt;/b&gt;&lt;/div&gt;" style="text;whiteSpace=wrap;html=1;fontSize=18;fontFamily=Helvetica;fontColor=#FFFFFF;container=0;" parent="1" vertex="1">
          <mxGeometry x="955" y="436" width="334" height="40" as="geometry" />
        </mxCell>
        <mxCell id="WaaS-qGKVErQEOPKYESH-105" value="&lt;b style=&quot;border-color: var(--border-color); color: rgb(255, 255, 255); font-family: Helvetica; font-style: normal; font-variant-ligatures: normal; font-variant-caps: normal; letter-spacing: normal; orphans: 2; text-align: center; text-indent: 0px; text-transform: none; widows: 2; word-spacing: 0px; -webkit-text-stroke-width: 0px; text-decoration-thickness: initial; text-decoration-style: initial; text-decoration-color: initial; font-size: 18px;&quot;&gt;&lt;font style=&quot;font-size: 18px;&quot;&gt;North Sector&lt;/font&gt;&lt;/b&gt;" style="text;whiteSpace=wrap;html=1;fontSize=18;fontFamily=Helvetica;fontColor=#FFFFFF;container=0;" parent="1" vertex="1">
          <mxGeometry x="972" y="468" width="287" height="40" as="geometry" />
        </mxCell>
        <mxCell id="WaaS-qGKVErQEOPKYESH-106" value="&lt;b style=&quot;border-color: var(--border-color); color: rgb(255, 255, 255); font-family: Helvetica; font-size: 18px; font-style: normal; font-variant-ligatures: normal; font-variant-caps: normal; letter-spacing: normal; orphans: 2; text-align: center; text-indent: 0px; text-transform: none; widows: 2; word-spacing: 0px; -webkit-text-stroke-width: 0px; text-decoration-thickness: initial; text-decoration-style: initial; text-decoration-color: initial;&quot;&gt;South Sector&lt;/b&gt;" style="text;whiteSpace=wrap;html=1;fontSize=18;fontFamily=Helvetica;fontColor=#FFFFFF;container=0;" parent="1" vertex="1">
          <mxGeometry x="972" y="693" width="343" height="40" as="geometry" />
        </mxCell>
        <mxCell id="WaaS-qGKVErQEOPKYESH-18" value="" style="rounded=1;whiteSpace=wrap;html=1;labelBackgroundColor=none;strokeColor=#DB918D;strokeWidth=3;align=left;verticalAlign=top;fontFamily=Helvetica;fontSize=18;fontColor=#FFFFFF;fillColor=none;arcSize=7;container=0;" parent="1" vertex="1">
          <mxGeometry x="974" y="498" width="370" height="200" as="geometry" />
        </mxCell>
        <mxCell id="WaaS-qGKVErQEOPKYESH-28" value="" style="rounded=1;whiteSpace=wrap;html=1;labelBackgroundColor=none;strokeColor=#DB918D;strokeWidth=3;align=left;verticalAlign=top;fontFamily=Helvetica;fontSize=18;fontColor=#FFFFFF;fillColor=none;container=0;" parent="1" vertex="1">
          <mxGeometry x="989" y="530" width="75" height="60" as="geometry" />
        </mxCell>
        <mxCell id="WaaS-qGKVErQEOPKYESH-31" value="Reconfiguración" style="text;html=1;strokeColor=none;fillColor=none;align=left;verticalAlign=middle;whiteSpace=wrap;rounded=0;fontSize=18;fontFamily=Helvetica;fontColor=#FFFFFF;container=0;" parent="1" vertex="1">
          <mxGeometry x="989" y="498" width="163" height="30" as="geometry" />
        </mxCell>
        <mxCell id="WaaS-qGKVErQEOPKYESH-81" value="" style="sketch=0;outlineConnect=0;dashed=0;verticalLabelPosition=bottom;verticalAlign=top;align=center;html=1;fontSize=18;fontStyle=0;aspect=fixed;pointerEvents=1;shape=mxgraph.aws4.iot_thing_temperature_sensor;rounded=1;labelBackgroundColor=none;strokeWidth=3;fontFamily=Helvetica;container=0;" parent="1" vertex="1">
          <mxGeometry x="1001.5" y="535" width="50" height="50" as="geometry" />
        </mxCell>
        <mxCell id="WaaS-qGKVErQEOPKYESH-69" value="" style="rounded=1;whiteSpace=wrap;html=1;labelBackgroundColor=none;strokeColor=#DB918D;strokeWidth=3;align=left;verticalAlign=top;fontFamily=Helvetica;fontSize=18;fontColor=#FFFFFF;fillColor=none;arcSize=7;container=0;" parent="1" vertex="1">
          <mxGeometry x="974" y="722" width="370" height="200" as="geometry" />
        </mxCell>
        <mxCell id="WaaS-qGKVErQEOPKYESH-74" value="" style="rounded=1;whiteSpace=wrap;html=1;labelBackgroundColor=none;strokeColor=#DB918D;strokeWidth=3;align=left;verticalAlign=top;fontFamily=Helvetica;fontSize=18;fontColor=#FFFFFF;fillColor=none;container=0;" parent="1" vertex="1">
          <mxGeometry x="989" y="760" width="75" height="60" as="geometry" />
        </mxCell>
        <mxCell id="WaaS-qGKVErQEOPKYESH-78" value="Reconfiguración" style="text;html=1;strokeColor=none;fillColor=none;align=left;verticalAlign=middle;whiteSpace=wrap;rounded=0;fontSize=18;fontFamily=Helvetica;fontColor=#FFFFFF;container=0;" parent="1" vertex="1">
          <mxGeometry x="989" y="730" width="141" height="30" as="geometry" />
        </mxCell>
        <mxCell id="WaaS-qGKVErQEOPKYESH-84" value="" style="sketch=0;outlineConnect=0;dashed=0;verticalLabelPosition=bottom;verticalAlign=top;align=center;html=1;fontSize=18;fontStyle=0;aspect=fixed;pointerEvents=1;shape=mxgraph.aws4.iot_thing_temperature_sensor;rounded=1;labelBackgroundColor=none;strokeWidth=3;fontFamily=Helvetica;container=0;" parent="1" vertex="1">
          <mxGeometry x="1001.5" y="765" width="50" height="50" as="geometry" />
        </mxCell>
        <mxCell id="haZiolKlXE39386u9Sym-3" value="" style="sketch=0;outlineConnect=0;dashed=0;verticalLabelPosition=bottom;verticalAlign=top;align=center;html=1;fontSize=18;fontStyle=0;aspect=fixed;pointerEvents=1;shape=mxgraph.aws4.iot_thing_temperature_sensor;rounded=1;labelBackgroundColor=none;strokeWidth=3;fontFamily=Helvetica;container=0;fillColor=#666666;" parent="1" vertex="1">
          <mxGeometry x="1596" y="533" width="50" height="50" as="geometry" />
        </mxCell>
        <mxCell id="haZiolKlXE39386u9Sym-4" value="" style="sketch=0;outlineConnect=0;fontColor=#232F3E;gradientColor=none;strokeColor=#FFFFFF;fillColor=none;dashed=0;verticalLabelPosition=bottom;verticalAlign=top;align=center;html=1;fontSize=18;fontStyle=0;aspect=fixed;shape=mxgraph.aws4.resourceIcon;resIcon=mxgraph.aws4.windfarm;rounded=1;labelBackgroundColor=none;strokeWidth=3;fontFamily=Helvetica;container=0;" parent="1" vertex="1">
          <mxGeometry x="1679" y="528" width="60" height="60" as="geometry" />
        </mxCell>
        <mxCell id="haZiolKlXE39386u9Sym-5" value="" style="sketch=0;outlineConnect=0;fontColor=#232F3E;gradientColor=none;strokeColor=#FFFFFF;fillColor=none;dashed=0;verticalLabelPosition=bottom;verticalAlign=top;align=center;html=1;fontSize=18;fontStyle=0;aspect=fixed;shape=mxgraph.aws4.resourceIcon;resIcon=mxgraph.aws4.windfarm;rounded=1;labelBackgroundColor=none;strokeWidth=3;fontFamily=Helvetica;container=0;" parent="1" vertex="1">
          <mxGeometry x="1768" y="528" width="60" height="60" as="geometry" />
        </mxCell>
        <mxCell id="haZiolKlXE39386u9Sym-6" value="" style="sketch=0;outlineConnect=0;fontColor=#232F3E;gradientColor=none;strokeColor=#FFFFFF;fillColor=none;dashed=0;verticalLabelPosition=bottom;verticalAlign=top;align=center;html=1;fontSize=18;fontStyle=0;aspect=fixed;shape=mxgraph.aws4.resourceIcon;resIcon=mxgraph.aws4.windfarm;rounded=1;labelBackgroundColor=none;strokeWidth=3;fontFamily=Helvetica;container=0;" parent="1" vertex="1">
          <mxGeometry x="1856" y="528" width="60" height="60" as="geometry" />
        </mxCell>
        <mxCell id="haZiolKlXE39386u9Sym-7" value="" style="sketch=0;outlineConnect=0;fontColor=#232F3E;gradientColor=none;strokeColor=#FFFFFF;fillColor=none;dashed=0;verticalLabelPosition=bottom;verticalAlign=top;align=center;html=1;fontSize=18;fontStyle=0;aspect=fixed;shape=mxgraph.aws4.resourceIcon;resIcon=mxgraph.aws4.generic;rounded=1;labelBackgroundColor=none;strokeWidth=3;fontFamily=Helvetica;container=0;" parent="1" vertex="1">
          <mxGeometry x="1768.5" y="618" width="60" height="60" as="geometry" />
        </mxCell>
        <mxCell id="haZiolKlXE39386u9Sym-8" value="" style="sketch=0;outlineConnect=0;fontColor=#232F3E;gradientColor=none;strokeColor=#FFFFFF;fillColor=none;dashed=0;verticalLabelPosition=bottom;verticalAlign=top;align=center;html=1;fontSize=18;fontStyle=0;aspect=fixed;shape=mxgraph.aws4.resourceIcon;resIcon=mxgraph.aws4.generic;rounded=1;labelBackgroundColor=none;strokeWidth=3;fontFamily=Helvetica;container=0;" parent="1" vertex="1">
          <mxGeometry x="1678" y="618" width="60" height="60" as="geometry" />
        </mxCell>
        <mxCell id="haZiolKlXE39386u9Sym-9" value="" style="sketch=0;outlineConnect=0;dashed=0;verticalLabelPosition=bottom;verticalAlign=top;align=center;html=1;fontSize=18;fontStyle=0;aspect=fixed;pointerEvents=1;shape=mxgraph.aws4.iot_thing_temperature_sensor;rounded=1;labelBackgroundColor=none;strokeWidth=3;fontFamily=Helvetica;container=0;fillColor=#666666;" parent="1" vertex="1">
          <mxGeometry x="1596" y="765" width="50" height="50" as="geometry" />
        </mxCell>
        <mxCell id="haZiolKlXE39386u9Sym-10" value="" style="sketch=0;outlineConnect=0;fontColor=#232F3E;gradientColor=none;strokeColor=#FFFFFF;fillColor=none;dashed=0;verticalLabelPosition=bottom;verticalAlign=top;align=center;html=1;fontSize=18;fontStyle=0;aspect=fixed;shape=mxgraph.aws4.resourceIcon;resIcon=mxgraph.aws4.windfarm;rounded=1;labelBackgroundColor=none;strokeWidth=3;fontFamily=Helvetica;container=0;" parent="1" vertex="1">
          <mxGeometry x="1679" y="760" width="60" height="60" as="geometry" />
        </mxCell>
        <mxCell id="haZiolKlXE39386u9Sym-11" value="" style="sketch=0;outlineConnect=0;fontColor=#232F3E;gradientColor=none;strokeColor=#FFFFFF;fillColor=none;dashed=0;verticalLabelPosition=bottom;verticalAlign=top;align=center;html=1;fontSize=18;fontStyle=0;aspect=fixed;shape=mxgraph.aws4.resourceIcon;resIcon=mxgraph.aws4.windfarm;rounded=1;labelBackgroundColor=none;strokeWidth=3;fontFamily=Helvetica;container=0;" parent="1" vertex="1">
          <mxGeometry x="1768" y="760" width="60" height="60" as="geometry" />
        </mxCell>
        <mxCell id="haZiolKlXE39386u9Sym-12" value="" style="sketch=0;outlineConnect=0;fontColor=#232F3E;gradientColor=none;strokeColor=#FFFFFF;fillColor=none;dashed=0;verticalLabelPosition=bottom;verticalAlign=top;align=center;html=1;fontSize=18;fontStyle=0;aspect=fixed;shape=mxgraph.aws4.resourceIcon;resIcon=mxgraph.aws4.windfarm;rounded=1;labelBackgroundColor=none;strokeWidth=3;fontFamily=Helvetica;container=0;" parent="1" vertex="1">
          <mxGeometry x="1856" y="760" width="60" height="60" as="geometry" />
        </mxCell>
        <mxCell id="haZiolKlXE39386u9Sym-13" value="" style="sketch=0;outlineConnect=0;fontColor=#232F3E;gradientColor=none;strokeColor=#FFFFFF;fillColor=none;dashed=0;verticalLabelPosition=bottom;verticalAlign=top;align=center;html=1;fontSize=18;fontStyle=0;aspect=fixed;shape=mxgraph.aws4.resourceIcon;resIcon=mxgraph.aws4.generic;rounded=1;labelBackgroundColor=none;strokeWidth=3;fontFamily=Helvetica;container=0;" parent="1" vertex="1">
          <mxGeometry x="1768.5" y="850" width="60" height="60" as="geometry" />
        </mxCell>
        <mxCell id="haZiolKlXE39386u9Sym-14" value="" style="sketch=0;outlineConnect=0;fontColor=#232F3E;gradientColor=none;strokeColor=#FFFFFF;fillColor=none;dashed=0;verticalLabelPosition=bottom;verticalAlign=top;align=center;html=1;fontSize=18;fontStyle=0;aspect=fixed;shape=mxgraph.aws4.resourceIcon;resIcon=mxgraph.aws4.generic;rounded=1;labelBackgroundColor=none;strokeWidth=3;fontFamily=Helvetica;container=0;" parent="1" vertex="1">
          <mxGeometry x="1678" y="850" width="60" height="60" as="geometry" />
        </mxCell>
      </root>
    </mxGraphModel>
  </diagram>
</mxfile>
